<svg xmlns="http://www.w3.org/2000/svg" viewBox="0 0 211.43 28.91"><defs><style>.cls-1{fill:#ccc;}.cls-2{fill:#0022d7;}</style></defs><g id="Capa_2" data-name="Capa 2"><g id="Capa_1-2" data-name="Capa 1"><path class="cls-1" d="M10.08,22.7,0,13.85,10.08,5l.84.86-9.07,8,9.07,8Z"/><path class="cls-2" d="M15.67,24V3.74H26.39V4.9H16.15l.78-.78V14.63l-.78-.78H23V15H16.15l.78-.78V24Z"/><path class="cls-2" d="M31.39,24V8.34h1.26V11.4a5.09,5.09,0,0,1,.91-1.63,5.23,5.23,0,0,1,1.55-1.28,4.14,4.14,0,0,1,2-.5,6.32,6.32,0,0,1,1.94.26,3,3,0,0,1,1.34.91,6.91,6.91,0,0,1,1,1.78l-1.11.51a4.64,4.64,0,0,0-.75-1.38,2.42,2.42,0,0,0-1-.71,4.3,4.3,0,0,0-1.46-.21A3.6,3.6,0,0,0,35,9.77a4.7,4.7,0,0,0-1.37,1.54,7.78,7.78,0,0,0-.73,1.88,7.52,7.52,0,0,0-.23,1.67V24Z"/><path class="cls-2" d="M50.57,24.31a9.7,9.7,0,0,1-3.14-.41,2.75,2.75,0,0,1-1.63-1.42,6.34,6.34,0,0,1-.48-2.72,6.91,6.91,0,0,1,.48-2.85,2.79,2.79,0,0,1,1.63-1.47A9.36,9.36,0,0,1,50.57,15h4V13.37a7.08,7.08,0,0,0-.37-2.53A2.33,2.33,0,0,0,53,9.54a6,6,0,0,0-2.39-.39,5.87,5.87,0,0,0-1.78.23,2.24,2.24,0,0,0-1.12.78,5,5,0,0,0-.74,1.52l-1.21-.31a6.62,6.62,0,0,1,1-2A3,3,0,0,1,48.2,8.29,7.86,7.86,0,0,1,50.57,8a8.18,8.18,0,0,1,3.15.49,2.94,2.94,0,0,1,1.63,1.67,8.74,8.74,0,0,1,.48,3.22V20A6.14,6.14,0,0,0,56,21.69a1.3,1.3,0,0,0,.62.85,2.3,2.3,0,0,0,1.17.26V24a3.35,3.35,0,0,1-2-.46A2.61,2.61,0,0,1,55,21.81a5.31,5.31,0,0,1-1,1.49,3.17,3.17,0,0,1-1.37.79A7.63,7.63,0,0,1,50.57,24.31Zm0-1.16A5.43,5.43,0,0,0,53,22.72a2.42,2.42,0,0,0,1.24-1.44,8.51,8.51,0,0,0,.37-2.78V16.18h-4a7.29,7.29,0,0,0-2.39.32A2.1,2.1,0,0,0,47,17.62a5,5,0,0,0-.37,2.14,4.54,4.54,0,0,0,.37,2,2.09,2.09,0,0,0,1.23,1.05A7.32,7.32,0,0,0,50.57,23.15Z"/><path class="cls-2" d="M61,24V8.34H62.3V10A4.37,4.37,0,0,1,64,8.45,6.93,6.93,0,0,1,66.85,8a6,6,0,0,1,2.8.53,3,3,0,0,1,1.45,1.79,11.33,11.33,0,0,1,.43,3.46V24H70.26V13.77A9.57,9.57,0,0,0,70,11a2.45,2.45,0,0,0-1-1.43,4,4,0,0,0-2.05-.43,8.59,8.59,0,0,0-2.72.35,2.37,2.37,0,0,0-1.41,1.29,6.89,6.89,0,0,0-.42,2.71V24Z"/><path class="cls-2" d="M75,24,80.6,3.74H82L87.62,24H86.31l-5-18.32L76.3,24Zm2.27-5.46.31-1.16h7.48l.3,1.16Z"/><path class="cls-2" d="M96.42,28.91a8.88,8.88,0,0,1-1.57-.12,3.78,3.78,0,0,1-1.17-.43,4.83,4.83,0,0,1-1.05-.84l.93-.78a3.6,3.6,0,0,0,.77.59,3.09,3.09,0,0,0,.9.32,5.94,5.94,0,0,0,1.19.1,5.47,5.47,0,0,0,2.41-.43,2.47,2.47,0,0,0,1.24-1.48,8.68,8.68,0,0,0,.37-2.84V20.52a3,3,0,0,1-1.61,1.78,6.23,6.23,0,0,1-2.59.5A6,6,0,0,1,93,22a4.26,4.26,0,0,1-1.7-2.54,19,19,0,0,1-.5-4.89,12.62,12.62,0,0,1,.5-4A3.52,3.52,0,0,1,93,8.59,7.24,7.24,0,0,1,96.24,8a8.21,8.21,0,0,1,2.56.35,2.87,2.87,0,0,1,1.64,1.31V8.34h1.26V22.77a11.35,11.35,0,0,1-.48,3.68,3.19,3.19,0,0,1-1.63,1.91A7.43,7.43,0,0,1,96.42,28.91Zm-.18-7.28a4.63,4.63,0,0,0,3-1,4.13,4.13,0,0,0,1.16-3.33v-6a1.62,1.62,0,0,0-.6-1.34,3.65,3.65,0,0,0-1.54-.68,10.21,10.21,0,0,0-2.06-.2,5.31,5.31,0,0,0-2.49.5,2.83,2.83,0,0,0-1.3,1.7,11.22,11.22,0,0,0-.38,3.26,18.38,18.38,0,0,0,.38,4.19A3.59,3.59,0,0,0,93.75,21,4.3,4.3,0,0,0,96.24,21.63Z"/><path class="cls-2" d="M111.2,24.31a6.32,6.32,0,0,1-2.79-.51A3,3,0,0,1,107,22a10.63,10.63,0,0,1-.43-3.39V8.34h1.26V18.65a9.1,9.1,0,0,0,.32,2.68,2.28,2.28,0,0,0,1.06,1.4,4.17,4.17,0,0,0,2,.42,8.49,8.49,0,0,0,2.73-.35,2.43,2.43,0,0,0,1.41-1.18,5.27,5.27,0,0,0,.41-2.29v-11H117V24h-1.27V22.47a3.78,3.78,0,0,1-1,1.1,4.06,4.06,0,0,1-1.42.57A11,11,0,0,1,111.2,24.31Z"/><path class="cls-2" d="M122.4,24V22.8h10.11V24Zm4.42,0V8.72l.79.78h-4V8.34h4.45V24Zm.11-18.88a1.59,1.59,0,0,1-1.09-.28,1.37,1.37,0,0,1-.31-1,1.4,1.4,0,0,1,.31-1,1.59,1.59,0,0,1,1.09-.28,1.57,1.57,0,0,1,1.09.28,1.41,1.41,0,0,1,.29,1,1.38,1.38,0,0,1-.29,1A1.57,1.57,0,0,1,126.93,5.08Z"/><path class="cls-2" d="M137.54,24V8.34h1.26V11.4a5.09,5.09,0,0,1,.91-1.63,5.23,5.23,0,0,1,1.55-1.28,4.14,4.14,0,0,1,2-.5,6.32,6.32,0,0,1,1.94.26,3.06,3.06,0,0,1,1.34.91,6.91,6.91,0,0,1,1,1.78l-1.11.51a4.64,4.64,0,0,0-.75-1.38,2.42,2.42,0,0,0-1-.71,4.34,4.34,0,0,0-1.46-.21,3.6,3.6,0,0,0-2.15.62,4.7,4.7,0,0,0-1.37,1.54,7.78,7.78,0,0,0-.73,1.88,7.52,7.52,0,0,0-.23,1.67V24Z"/><path class="cls-2" d="M152.7,24V8.34H154V11.4a4.91,4.91,0,0,1,.91-1.63,5.19,5.19,0,0,1,1.54-1.28,4.17,4.17,0,0,1,2-.5,6.35,6.35,0,0,1,1.95.26,3.06,3.06,0,0,1,1.34.91,6.91,6.91,0,0,1,1,1.78l-1.11.51a4.88,4.88,0,0,0-.74-1.38,2.42,2.42,0,0,0-1-.71,4.4,4.4,0,0,0-1.47-.21,3.62,3.62,0,0,0-2.15.62,4.67,4.67,0,0,0-1.36,1.54,7.39,7.39,0,0,0-.73,1.88,7,7,0,0,0-.23,1.67V24Z"/><path class="cls-2" d="M172.34,24.31a7,7,0,0,1-3.5-.74A4.19,4.19,0,0,1,167,21a18,18,0,0,1-.53-4.88,18,18,0,0,1,.53-4.89,4.17,4.17,0,0,1,1.81-2.53,7,7,0,0,1,3.5-.74,6.8,6.8,0,0,1,3.45.74,4.1,4.1,0,0,1,1.77,2.54,18.22,18.22,0,0,1,.52,4.91H167.24V15h9.55a12,12,0,0,0-.4-3.5A3,3,0,0,0,175,9.69a5.54,5.54,0,0,0-2.67-.54,5.22,5.22,0,0,0-2.74.62,3.36,3.36,0,0,0-1.41,2.1,15.38,15.38,0,0,0-.42,4.05,17.47,17.47,0,0,0,.42,4.31,3.62,3.62,0,0,0,1.41,2.25,4.85,4.85,0,0,0,2.74.67A6.53,6.53,0,0,0,174,23a3.65,3.65,0,0,0,1.3-.63,6.41,6.41,0,0,0,1.2-1.23l1,.69a7.74,7.74,0,0,1-1.42,1.51,4.36,4.36,0,0,1-1.6.79A9.18,9.18,0,0,1,172.34,24.31Z"/><path class="cls-1" d="M186.81,28.56,197.12,0h1.31L188.12,28.56Z"/><path class="cls-1" d="M201.35,22.7l-.83-.86,9.07-8-9.07-8,.83-.86,10.08,8.85Z"/></g></g></svg>