<svg xmlns="http://www.w3.org/2000/svg" viewBox="0 0 25.68 13.33"><defs><style>.cls-1{fill:#1900df;}.cls-2{fill:#ff0;stroke:#000;stroke-miterlimit:20;stroke-width:0.45px;}</style></defs><g id="Capa_2" data-name="Capa 2"><g id="Capa_1-2" data-name="Capa 1"><path class="cls-1" d="M0,11.46V1.86H5.09v.56H.23L.6,2V7L.23,6.67H3.48v.55H.23L.6,6.84v4.62Z"/><path class="cls-1" d="M6.56,11.46l2.67-9.6H9.9l2.66,9.6h-.62L9.56,2.76l-2.37,8.7ZM7.64,8.87l.15-.55h3.55l.14.55Z"/><path class="cls-2" d="M18.44,13.21a2.28,2.28,0,0,1-1.72-.82,5.65,5.65,0,0,1-1.14-2.29,12.65,12.65,0,0,1-.41-3.43,12.58,12.58,0,0,1,.41-3.44A5.58,5.58,0,0,1,16.72.94,2.27,2.27,0,0,1,18.44.13V.68a1.76,1.76,0,0,0-1.4.75,5.57,5.57,0,0,0-.94,2.09,13.3,13.3,0,0,0-.33,3.15,13.33,13.33,0,0,0,.33,3.14A5.5,5.5,0,0,0,17,11.9a1.76,1.76,0,0,0,1.4.75Z"/><path class="cls-2" d="M22.28,13.21v-.56a1.77,1.77,0,0,0,1.41-.75,5.35,5.35,0,0,0,.93-2.09A12.79,12.79,0,0,0,25,6.67a12.77,12.77,0,0,0-.34-3.15,5.42,5.42,0,0,0-.93-2.09A1.77,1.77,0,0,0,22.28.68V.13A2.29,2.29,0,0,1,24,.94a5.58,5.58,0,0,1,1.14,2.29,13,13,0,0,1,.41,3.44,13.06,13.06,0,0,1-.41,3.43A5.65,5.65,0,0,1,24,12.39,2.3,2.3,0,0,1,22.28,13.21Z"/></g></g></svg>