<svg xmlns="http://www.w3.org/2000/svg" viewBox="0 0 223.33 34.27"><defs><style>.cls-1{fill:#0017b6;}.cls-2{fill:#ff0;stroke:#000;stroke-miterlimit:10;}</style></defs><g id="Capa_2" data-name="Capa 2"><g id="Capa_1-2" data-name="Capa 1"><path class="cls-1" d="M0,28.47V4.79H12.55V6.15H.56l.92-.91V17.55l-.92-.92h8V18h-8l.92-.92v11.4Z"/><path class="cls-1" d="M18.41,28.47V10.18h1.48v3.58A5.75,5.75,0,0,1,21,11.85a6.31,6.31,0,0,1,1.81-1.5,4.83,4.83,0,0,1,2.36-.59,7.38,7.38,0,0,1,2.28.31A3.59,3.59,0,0,1,29,11.14a7.58,7.58,0,0,1,1.21,2.09l-1.3.59A5.3,5.3,0,0,0,28,12.2a2.78,2.78,0,0,0-1.17-.82,4.94,4.94,0,0,0-1.72-.26,4.21,4.21,0,0,0-2.51.73,5.42,5.42,0,0,0-1.6,1.8,9.27,9.27,0,0,0-.86,2.21,9,9,0,0,0-.26,1.95V28.47Z"/><path class="cls-1" d="M40.87,28.88a11.07,11.07,0,0,1-3.69-.49,3.26,3.26,0,0,1-1.91-1.66,7.46,7.46,0,0,1-.56-3.18,8.18,8.18,0,0,1,.56-3.34,3.32,3.32,0,0,1,1.91-1.72,11,11,0,0,1,3.69-.5h4.67V16.07a8.05,8.05,0,0,0-.43-3,2.73,2.73,0,0,0-1.45-1.53,7,7,0,0,0-2.79-.46,6.76,6.76,0,0,0-2.09.27,2.69,2.69,0,0,0-1.32.92,5.61,5.61,0,0,0-.85,1.77l-1.42-.35a7.65,7.65,0,0,1,1.13-2.38,3.49,3.49,0,0,1,1.77-1.23,9,9,0,0,1,2.78-.36,9.63,9.63,0,0,1,3.68.58,3.45,3.45,0,0,1,1.91,1.95A10.39,10.39,0,0,1,47,16.07v7.78a7.12,7.12,0,0,0,.21,1.95,1.61,1.61,0,0,0,.73,1,2.71,2.71,0,0,0,1.37.29v1.37A4,4,0,0,1,47,27.93a3,3,0,0,1-1-2,6.53,6.53,0,0,1-1.19,1.75,3.48,3.48,0,0,1-1.6.91A8.75,8.75,0,0,1,40.87,28.88Zm0-1.36a6.48,6.48,0,0,0,2.79-.5,2.88,2.88,0,0,0,1.45-1.69,9.76,9.76,0,0,0,.43-3.26V19.35H40.87a8.06,8.06,0,0,0-2.8.39A2.49,2.49,0,0,0,36.62,21a6,6,0,0,0-.43,2.51,5.31,5.31,0,0,0,.43,2.37,2.52,2.52,0,0,0,1.45,1.23A8.38,8.38,0,0,0,40.87,27.52Z"/><path class="cls-1" d="M53.12,28.47V10.18H54.6v1.89a5.05,5.05,0,0,1,2-1.76,8.12,8.12,0,0,1,3.36-.55,7.2,7.2,0,0,1,3.28.62,3.57,3.57,0,0,1,1.69,2.11,13.14,13.14,0,0,1,.5,4V28.47H63.92V16.54a11.07,11.07,0,0,0-.37-3.24,2.82,2.82,0,0,0-1.23-1.67,4.69,4.69,0,0,0-2.39-.51,9.72,9.72,0,0,0-3.19.42,2.69,2.69,0,0,0-1.65,1.51,7.94,7.94,0,0,0-.49,3.16V28.47Z"/><path class="cls-1" d="M69.45,28.47,76,4.79h1.66l6.57,23.68H82.71L76.85,7,71,28.47Zm2.67-6.4.35-1.36h8.76l.36,1.36Z"/><path class="cls-1" d="M94.55,34.27a9.84,9.84,0,0,1-1.84-.15,4.46,4.46,0,0,1-1.37-.5,6.21,6.21,0,0,1-1.23-1l1.09-.92a4,4,0,0,0,.91.7,3.81,3.81,0,0,0,1,.37,7.12,7.12,0,0,0,1.39.11,6.49,6.49,0,0,0,2.83-.5,2.88,2.88,0,0,0,1.45-1.73,10.63,10.63,0,0,0,.42-3.33v-2.9a3.6,3.6,0,0,1-1.87,2.09,7.46,7.46,0,0,1-3,.57,7,7,0,0,1-3.79-.88,5,5,0,0,1-2-3A22.06,22.06,0,0,1,88,17.52a14.64,14.64,0,0,1,.59-4.65,4.14,4.14,0,0,1,2-2.4,8.47,8.47,0,0,1,3.79-.71,9.55,9.55,0,0,1,3,.42,3.29,3.29,0,0,1,1.92,1.54V10.18h1.48V27.07a13.12,13.12,0,0,1-.56,4.31,3.73,3.73,0,0,1-1.91,2.24A8.72,8.72,0,0,1,94.55,34.27Zm-.21-8.53a5.37,5.37,0,0,0,3.55-1.12c.91-.75,1.36-2.05,1.36-3.91v-7a1.92,1.92,0,0,0-.69-1.57,4.37,4.37,0,0,0-1.81-.8,11.38,11.38,0,0,0-2.41-.24,6,6,0,0,0-2.91.6,3.27,3.27,0,0,0-1.53,2,13.28,13.28,0,0,0-.44,3.82,21.81,21.81,0,0,0,.44,4.91A4.22,4.22,0,0,0,91.43,25,5,5,0,0,0,94.34,25.74Z"/><path class="cls-1" d="M111.86,28.88a7.25,7.25,0,0,1-3.27-.61,3.42,3.42,0,0,1-1.7-2.05,12.42,12.42,0,0,1-.5-4V10.18h1.48V22.25a10.56,10.56,0,0,0,.37,3.14A2.69,2.69,0,0,0,109.48,27a4.82,4.82,0,0,0,2.38.49,9.71,9.71,0,0,0,3.2-.42,2.79,2.79,0,0,0,1.64-1.37,6.1,6.1,0,0,0,.49-2.68V10.18h1.48V28.47h-1.48V26.72A4.46,4.46,0,0,1,116,28a4.75,4.75,0,0,1-1.65.66A12,12,0,0,1,111.86,28.88Z"/><path class="cls-1" d="M125,28.47V27.1h11.84v1.37Zm5.18,0V10.62l.92.92h-4.65V10.18h5.21V28.47Zm.12-22.11A1.91,1.91,0,0,1,129,6a1.63,1.63,0,0,1-.35-1.21A1.63,1.63,0,0,1,129,3.61a1.91,1.91,0,0,1,1.28-.33,1.84,1.84,0,0,1,1.28.33,1.63,1.63,0,0,1,.35,1.21A1.63,1.63,0,0,1,131.55,6,1.84,1.84,0,0,1,130.27,6.36Z"/><path class="cls-1" d="M142.7,28.47V10.18h1.48v3.58a5.75,5.75,0,0,1,1.06-1.91,6.31,6.31,0,0,1,1.81-1.5,4.83,4.83,0,0,1,2.36-.59,7.38,7.38,0,0,1,2.28.31,3.59,3.59,0,0,1,1.57,1.07,7.84,7.84,0,0,1,1.21,2.09l-1.3.59a5.3,5.3,0,0,0-.87-1.62,2.78,2.78,0,0,0-1.17-.82,4.94,4.94,0,0,0-1.72-.26,4.21,4.21,0,0,0-2.51.73,5.31,5.31,0,0,0-1.6,1.8,9.27,9.27,0,0,0-.86,2.21,8.46,8.46,0,0,0-.26,1.95V28.47Z"/><path class="cls-1" d="M160.45,28.47V10.18h1.48v3.58A5.79,5.79,0,0,1,163,11.85a6.27,6.27,0,0,1,1.8-1.5,4.84,4.84,0,0,1,2.37-.59,7.38,7.38,0,0,1,2.28.31A3.65,3.65,0,0,1,171,11.14a8.11,8.11,0,0,1,1.21,2.09l-1.3.59a5.77,5.77,0,0,0-.87-1.62,2.78,2.78,0,0,0-1.17-.82,5,5,0,0,0-1.72-.26,4.22,4.22,0,0,0-2.52.73,5.28,5.28,0,0,0-1.59,1.8,8.87,8.87,0,0,0-.86,2.21,8.53,8.53,0,0,0-.27,1.95V28.47Z"/><path class="cls-1" d="M183.45,28.88a8.14,8.14,0,0,1-4.1-.87,4.86,4.86,0,0,1-2.12-3,21,21,0,0,1-.62-5.71,21,21,0,0,1,.62-5.72,4.81,4.81,0,0,1,2.12-3,8,8,0,0,1,4.1-.88,7.77,7.77,0,0,1,4,.88,4.83,4.83,0,0,1,2.08,3,21.73,21.73,0,0,1,.6,5.74H177.47V18h11.18a14,14,0,0,0-.47-4.1,3.57,3.57,0,0,0-1.61-2.13,6.48,6.48,0,0,0-3.12-.64,6.12,6.12,0,0,0-3.22.73,4,4,0,0,0-1.65,2.46,18,18,0,0,0-.49,4.75,20.31,20.31,0,0,0,.49,5,4.35,4.35,0,0,0,1.65,2.63,5.66,5.66,0,0,0,3.22.79,8.14,8.14,0,0,0,2-.22,4.57,4.57,0,0,0,1.52-.74,7.74,7.74,0,0,0,1.41-1.44l1.18.8a9,9,0,0,1-1.66,1.78,4.87,4.87,0,0,1-1.87.91A10.52,10.52,0,0,1,183.45,28.88Z"/><path class="cls-2" d="M205.29,32.76a5.55,5.55,0,0,1-4.25-2,13.79,13.79,0,0,1-2.83-5.65,31.93,31.93,0,0,1-1-8.46,31.93,31.93,0,0,1,1-8.48A13.81,13.81,0,0,1,201,2.51a5.57,5.57,0,0,1,4.25-2V1.86a4.36,4.36,0,0,0-3.47,1.85,13.67,13.67,0,0,0-2.31,5.17,32.27,32.27,0,0,0-.82,7.75,32.32,32.32,0,0,0,.82,7.75,13.74,13.74,0,0,0,2.31,5.17,4.36,4.36,0,0,0,3.47,1.85Z"/><path class="cls-2" d="M214.75,32.76V31.4a4.36,4.36,0,0,0,3.47-1.85,13.59,13.59,0,0,0,2.3-5.17,31.79,31.79,0,0,0,.83-7.75,31.73,31.73,0,0,0-.83-7.75,13.52,13.52,0,0,0-2.3-5.17,4.36,4.36,0,0,0-3.47-1.85V.5a5.57,5.57,0,0,1,4.25,2,13.81,13.81,0,0,1,2.83,5.64,31.93,31.93,0,0,1,1,8.48,31.93,31.93,0,0,1-1,8.46A13.79,13.79,0,0,1,219,30.74,5.55,5.55,0,0,1,214.75,32.76Z"/></g></g></svg>